<svg version="1.1" xmlns="http://www.w3.org/2000/svg" viewBox="0 0 3103.2069167949253 2112.686798095703" width="3103.2069167949253" height="2112.686798095703">
  <!-- svg-source:excalidraw -->
  
  <defs>
    <style>
      @font-face {
        font-family: "Virgil";
        src: url("https://excalidraw.com/Virgil.woff2");
      }
      @font-face {
        font-family: "Cascadia";
        src: url("https://excalidraw.com/Cascadia.woff2");
      }
    </style>
  </defs>
  <g transform="translate(660.0223464824257 56.70977783203125) rotate(0 468.5250854492185 380.6409454345703)"><path d="M611.7097482903323 18.231222608476344 C640.8395016432828 19.258731277373, 668.543740627522 34.87080256988137, 694.5207930718877 46.37271781991615 C720.4978455162535 57.874633069950924, 744.9682448411709 71.58921694786324, 767.5720629565269 87.24271410868499 C790.1758810718829 102.89621126950675, 811.3840546340638 121.4750739347449, 830.1437017640238 140.2937007848467 C848.9033488939839 159.11232763494849, 865.9773765195105 179.07673106162738, 880.1299457362875 200.15447520929578 C894.2825149530645 221.23221935696418, 906.2313790843365 243.87028977428199, 915.0591170646862 266.7601656708571 C923.886855045036 289.6500415674322, 929.6017513750919 313.73107962162175, 933.0963736183858 337.49373058874636 C936.5909958616796 361.256381555871, 938.1733228342938 385.4147624121566, 936.0268505244496 409.3360714736047 C933.8803782146055 433.2573805350528, 927.9625107887765 457.711633183704, 920.2175397593205 481.02158495743504 C912.4725687298645 504.33153673116607, 902.5311166056237 527.6041248758924, 889.5570243477135 549.1957821159908 C876.5829320898034 570.7874393560893, 860.244454920738 591.4240741742482, 842.37298621186 610.5715283980256 C824.5015175029821 629.7189826218031, 804.5076096115479 648.0063146486967, 782.3282120944457 664.0805074586553 C760.1488145773435 680.154700268614, 734.6477361046133 694.8352963912213, 709.2966011092471 707.0166852577772 C683.945466113881 719.1980741243332, 657.7777434612852 728.8483507116031, 630.2214021222492 737.1688406579908 C602.6650607832131 745.4893306043786, 573.3106977288879 752.8929149203764, 543.9585530750305 756.9396249361039 C514.6064084211731 760.9863349518314, 483.7948658326878 762.1688259893119, 454.10853419910455 761.4491007523557 C424.42220256552133 760.7293755153994, 394.7397792121904 757.9873329147576, 365.8405632735313 752.621273514366 C336.9413473348722 747.2552141139743, 307.7706884750203 738.8457463134292, 280.71323856714986 729.2527443500052 C253.65578865927944 719.6597423865811, 227.78229276170217 708.8172850053251, 203.49586382630878 695.0632617338217 C179.2094348909154 681.3092384623184, 155.76265379579948 663.9230031826612, 134.99466495478953 646.728604720985 C114.22667611377959 629.5342062593088, 95.29141045041895 611.8199977473085, 78.88793078024912 591.8968709637647 C62.48445111007929 571.9737441802209, 48.04946637992146 549.4740466606095, 36.57378693377058 527.1898440197219 C25.098107487619693 504.9056413788344, 16.0102408680312 481.81872663108305, 10.0338541033438 458.19165511843954 C4.057467338656399 434.56458360579603, 1.3153665946089461 409.4035483919884, 0.7154663456461776 385.4274149438608 C0.11556609668340911 361.4512814957332, 1.5037404156820644 337.70071243926463, 6.434452609567188 314.33485442967395 C11.365164803452313 290.9689964200833, 19.42877449711174 267.7403796577865, 30.299739508956918 245.23226688631684 C41.1707045208021 222.72415411484718, 55.864581527434915 199.74452586209608, 71.66024268063825 179.28617780085594 C87.45590383384159 158.8278297396158, 105.13435420040925 140.0961672568485, 125.07370642817693 122.48217851887597 C145.0130586559446 104.86818978090344, 167.42672827313928 87.98066998947506, 191.29635604724433 73.60224537302076 C215.16598382134939 59.22382075656646, 241.4651460791888 46.36899399838294, 268.2914730728073 36.21163082015016 C295.11780006642584 26.054267641917384, 323.5278580636244 18.679076367468042, 352.25431800895547 12.658066303624082 C380.9807779542865 6.637056239780122, 411.14890619815543 1.7844770082535604, 440.65023274479375 0.08557043708640322 C470.1515592914321 -1.613336134080754, 497.21282799007355 -1.477435071988642, 529.2622772887855 2.464626876621139 C561.3117265874974 6.406688825230921, 612.5758325451789 17.80107754341674, 632.9469285370656 23.73794212874509 C653.3180245289523 29.67480671407344, 654.0763455015069 31.929919553318513, 651.4888532401055 38.085814388591245 M535.6816237157082 3.80905010389273 C564.728637346264 0.6382260280983778, 592.9379119145774 12.382163350885424, 620.9567412071558 20.091785329039965 C648.9755704997342 27.801407307194506, 678.0040704031442 38.12471141054482, 703.7945994711786 50.06678197281997 C729.585128539213 62.008852535095116, 753.4499781625062 75.84370491579799, 775.699915615362 91.74420870269086 C797.9498530682177 107.64471248958372, 819.3267016418242 126.36279376504586, 837.2942241883131 145.46980469417716 C855.261746734802 164.57681562330845, 869.9306723634385 184.8131796021229, 883.5050508942956 206.38627427747863 C897.0794294251526 227.95936895283438, 909.9836215157623 252.1045536197728, 918.7404953734554 274.90837274631156 C927.4973692311485 297.7121918728503, 933.2958651333292 319.408130284331, 936.0462940404543 343.20918903671134 C938.7967229475794 367.0102477890917, 938.4104202297353 393.64899469352594, 935.2430688162057 417.71472526059375 C932.075717402676 441.78045582766157, 925.2261268470851 464.50464379619797, 917.0421855592763 487.6035724391181 C908.8582442714675 510.7025010820383, 899.5987117143219 534.9063772657404, 886.1394210893527 556.3082971181148 C872.6801304643835 577.7102169704891, 854.9195285011929 597.0400905607605, 836.2864418094614 616.0150915533641 C817.6533551177299 634.9900925459676, 796.6725185518243 654.3430443684341, 774.3409009389636 670.158303073736 C752.009283326103 685.9735617790378, 727.9707251712672 698.993330423364, 702.2967361322972 710.9066437851752 C676.6227470933271 722.8199571469864, 648.5744354233224 733.8890183444252, 620.2969667051432 741.6381832446033 C592.019497986964 749.3873481447814, 561.8936891322159 754.1143420443959, 532.6319238232219 757.4016331862439 C503.37015851422785 760.6889243280918, 473.97846124114176 762.3907538932955, 444.72637485117906 761.3619300956908 C415.47428846121636 760.3331062980861, 386.0002703413859 757.0112231391629, 357.11940548344586 751.2286904006156 C328.23854062550583 745.4461576620683, 298.2292768617875 736.7567622408579, 271.4411857035391 726.6667336644075 C244.65309454529066 716.5767050879571, 220.01109784220193 704.7948087459741, 196.39085853395528 690.6885189419131 C172.77061922570863 676.5822291378521, 150.24757548431813 659.5597478183213, 129.71974985405922 642.0289948400414 C109.1919242238003 624.4982418617615, 89.38559340652775 605.6165076599391, 73.22390475240178 585.5040010722337 C57.06221609827581 565.3914944845283, 43.4177429178566 544.0087734328429, 32.74961792930338 521.3539553138093 C22.081492940750167 498.69913719477563, 14.898212235929758 473.0939226403395, 9.215154821082479 449.57509235803207 C3.5320974062351995 426.05626207572465, -1.5232800353505904 403.8672660808196, -1.3487265597802889 380.24097361996485 C-1.1741730842099873 356.6146811591101, 4.452660306505739 331.7785660036719, 10.262475674504287 307.8173375929037 C16.072291042502837 283.85610918213547, 22.350895104385863 259.0440829355427, 33.510165648211 236.47360315535533 C44.66943619203614 213.90312337516798, 61.019843426471695 192.4575646655298, 77.21809893745512 172.39445891177948 C93.41635444843855 152.33135315802917, 110.25171144768133 133.2036292091862, 130.69969871411155 116.09496863285358 C151.14768598054175 98.98630805652097, 175.4239031188651 83.67690682445279, 199.9060225360364 69.74249545378382 C224.3881419532077 55.808084083114856, 250.65988462089715 42.31009747115652, 277.59241521713943 32.4885004088398 C304.52494581338175 22.66690334652308, 333.00707068534655 16.413777051152284, 361.5012061134902 10.812913079883515 C389.9953415416338 5.212049108614745, 419.7532681522672 0.10482654929538171, 448.55722778600114 -1.1166834187728227 C477.3611874197351 -2.338193386841027, 520.0238805292034 1.6057573781391266, 534.3249639158938 3.4838532714742882 C548.6260473025842 5.36194916480945, 535.5535668785158 3.6244305138385853, 534.3637281061433 10.151891941238148" stroke="#000000" stroke-width="4" fill="none"></path></g><g transform="translate(2039.1095046855503 10) rotate(0 468.52508544921875 380.6409454345703)"><path d="M384.55942500265013 5.99590222611738 C410.7046770344454 -4.280278955391603, 444.1049234977729 -0.9622490236628305, 473.7851543092903 -0.5857335988662271 C503.4653851208077 -0.20921817406962379, 533.7211741494276 3.3224456407931013, 562.6408098717544 8.254994774897 C591.5604455940812 13.187543909000897, 620.0380364233619 20.001566889203467, 647.3029686432509 29.009561205757166 C674.5679008631399 38.017555522310865, 701.2453123879151 48.973859756437655, 726.2304031910886 62.30296067421921 C751.2154939942621 75.63206159200077, 775.8493790371051 91.99577450127596, 797.2135134622922 108.9841667124465 C818.5776478874793 125.97255892361703, 837.7175452051831 144.45001062241224, 854.4152097422109 164.23331394124241 C871.1128742792387 184.0166172600726, 885.4446213411536 205.79646448462057, 897.3995006844589 227.68398662542762 C909.3543800277641 249.57150876623467, 919.7048997627967 272.03691680061013, 926.1444858020428 295.55844678608474 C932.584071841289 319.07997677155936, 935.2532716666657 344.8576316784194, 936.0370169199358 368.8131665382755 C936.8207621732059 392.76870139813155, 935.2398423736616 415.7802981475896, 930.8469573216636 439.29165594522107 C926.4540722696655 462.80301374285256, 919.836458355589 486.9847761177283, 909.6797066079472 509.8813133240644 C899.5229548603054 532.7778505304005, 885.1743358063644 555.8002558874763, 869.9064468358126 576.670879183238 C854.6385578652609 597.5415024789996, 837.5927860990547 617.1947103562087, 818.0723727846366 635.1050530986342 C798.5519594702185 653.0153958410598, 776.1998392162247 669.5925809553822, 752.7839669493039 684.1329356377912 C729.3680946823831 698.6732903202002, 704.0796762930129 711.6841564362586, 677.5771391831114 722.3471811930879 C651.0746020732099 733.0102059499171, 622.4825019585253 741.890404663307, 593.7687442898953 748.1110841787668 C565.0549866212652 754.3317636942265, 534.9997901285426 757.8140905606188, 505.294593171331 759.6712582858463 C475.58939621411935 761.5284260110739, 445.06170023453103 762.0085102852385, 415.53756254662545 759.2540905301317 C386.0134248587199 756.499670775025, 356.4271986991997 750.395741216772, 328.1497670438973 743.1447397552063 C299.87233538859493 735.8937382936406, 271.6710181304 727.0002621536919, 245.87297261481092 715.7480817607378 C220.0749270992218 704.4959013677837, 196.00503462500237 690.6644490076294, 173.36149395036273 675.6316573974816 C150.7179532757231 660.5988657873338, 129.10493760041533 644.0797747019809, 110.01172856697315 625.5513320998508 C90.91851953353098 607.0228894977207, 73.2795414612829 585.468180779494, 58.80223974970971 564.461001784701 C44.32493803813653 543.453822789908, 32.31975111171874 522.248685924696, 23.147918297534034 499.5082581310927 C13.976085483349332 476.7678303374894, 7.363722727960814 452.0248315531551, 3.771242864601504 428.018435023081 C0.17876300124219346 404.0120384930069, -0.21915896854973949 379.56235075996415, 1.5930391173781686 355.4698789506482 C3.4052372033060765 331.37740714133224, 7.076452479130789 306.7601345135512, 14.644431380168953 283.46360416718534 C22.212410281207116 260.1670738208195, 34.1518750223808 237.2844785245023, 47.000912523607155 215.69069687245297 C59.84995002483351 194.09691522040364, 74.25340996433331 173.20338357847487, 91.7386563875271 153.90091425488941 C109.22390281072089 134.59844493130396, 129.94327211229526 115.95768018498542, 151.91239106276987 99.8758809309403 C173.88151001324448 83.79408167689517, 198.42456020404217 70.00562189674879, 223.55337009037476 57.410118730618706 C248.68217997670735 44.81461556448861, 273.9791540430223 32.97543387937179, 302.6852503807654 24.30286193415975 C331.39134671850854 15.630289988947709, 378.13808774390753 7.739696592763957, 395.7899481168337 5.374687059346456 C413.4418084897599 3.009677525928955, 407.23136190972446 3.825848541358302, 408.5964126183227 10.112804733654741 M619.3293695740741 20.30334247590031 C648.251700673119 21.673507202944602, 674.5127090963615 37.30939809480734, 700.3057128019162 49.034030500428514 C726.098716507471 60.758662906049686, 751.2697221648762 74.76755860190802, 774.0873918074026 90.65113690962733 C796.905061449929 106.53471521734663, 818.7228746107158 125.18337959788212, 837.2117306570751 144.33550034674437 C855.7005867034344 163.4876210956066, 871.5833305723858 184.02248908915814, 885.020528085558 205.56386140280082 C898.4577255987302 227.1052337164435, 909.4862135122556 250.5277909117471, 917.8349157361088 273.5837342286005 C926.1836179599619 296.63967754545394, 932.1541987714805 320.20231410319553, 935.1127414286768 343.8995213039213 C938.0712840858731 367.59672850464705, 938.5419745077872 391.8014265673404, 935.5861716792867 415.7669774329552 C932.6303688507862 439.73252829856995, 925.9597334856023 464.8312981050859, 917.3779244576735 487.69282649760976 C908.7961154297448 510.5543548901336, 897.674618013201 531.5502714362119, 884.0953175117138 552.9361477880982 C870.5160170102266 574.3220241399845, 853.9898391978417 596.9696944650448, 835.9021214487504 616.0080846089272 C817.8144036996592 635.0464747528097, 797.8020006696107 651.3507865648535, 775.5690110171663 667.1664886513931 C753.3360213647219 682.9821907379328, 728.1379466942385 698.694255364712, 702.5041835340837 710.902297128165 C676.8704203739289 723.1103388916179, 649.673196536875 732.7196432109224, 621.7664320562377 740.4147392321106 C593.8596675756004 748.1098352532988, 564.234694168156 753.8317546243265, 535.0635966502599 757.0728732552943 C505.89249913236375 760.3139918862621, 476.2911707435555 761.0719841999698, 446.7398469488608 759.8614510179173 C417.18852315416615 758.6509178358647, 386.4348661429939 755.5529115339101, 357.7556538820918 749.809674162979 C329.0764416211897 744.066436792048, 301.35866896547947 735.3751360877396, 274.6645733834481 725.4020267923311 C247.97047780141673 715.4289174969225, 221.8329003876182 703.5259684441459, 197.59108038990354 689.9710183905274 C173.34926039218888 676.416068336909, 149.68598019956283 661.2602518475477, 129.21365339716021 644.0723264706203 C108.74132659475761 626.8844010936929, 90.79307265976135 607.4642354399103, 74.75711957548788 586.8434661289632 C58.721166491214404 566.2226968180161, 44.07652065803395 543.004034730252, 32.99793489151938 520.3477106049377 C21.919349125004807 497.69138647962336, 14.021449522573477 474.06077332392186, 8.285604976400464 450.9055213770774 C2.549760430227451 427.7502694302329, -1.290627871473589 405.4549825474612, -1.4171323855186984 381.4161989238708 C-1.5436368995638077 357.3774153002804, 1.8719746816578322 330.4632248491838, 7.526577892129808 306.6728196355348 C13.181181102601784 282.88241442188576, 21.466531296000653 260.6301886301155, 32.510486877313156 238.67376764197667 C43.55444245862566 216.7173466538378, 57.27361175663981 195.07966625441904, 73.79031138000482 174.9342937067017 C90.30701100336984 154.78892115898438, 111.01693905656136 135.3278674568487, 131.61068461750324 117.80153235567269 C152.2044301784451 100.27519725449667, 173.50445069082562 83.60243574076632, 197.3527847456561 69.77628309964558 C221.20111880048657 55.950130458524846, 247.78884936494526 44.6703287101681, 274.70068894648614 34.84461650894826 C301.61252852802704 25.018904307728427, 329.845222567853 16.67740209108287, 358.8238222349014 10.822009892326548 C387.8024219019498 4.966617693570224, 418.76269196290565 1.0021131099696372, 448.5722869487766 -0.28773668358968507 C478.38188193464754 -1.5775864771490073, 509.0431197431272 -0.20705939842533416, 537.6813921501271 3.082911130970615 C566.319664557127 6.372881660366565, 607.3446651459179 15.539068975674411, 620.4019213907759 19.45208649278601 C633.4591776356339 23.365104009897607, 618.5770205661428 20.477502601663833, 616.0249296192748 26.561016233640203" stroke="#000000" stroke-width="4" fill="none"></path></g><g transform="translate(483.2301101543003 1211.7464599609375) rotate(0 468.52508544921875 380.6409454345703)"><path d="M319.94865923867644 19.869971719558748 C344.06267184876094 6.461903957878283, 376.5927163619196 6.29558253126792, 405.8002473105597 2.9874174994938016 C435.0077782591998 -0.32074753228031705, 465.7255526714009 -1.4226359460237366, 495.19384493051723 0.020981528914035152 C524.6621371896335 1.4645990038518069, 554.0635437553206 5.498556325619688, 582.6100008652577 11.649122349120432 C611.1564579751948 17.799688372621176, 639.5405801553621 26.640846187261296, 666.4725875901404 36.9243776699185 C693.4045950249186 47.2079091525757, 720.0702833522753 59.34170476534721, 744.2020454739272 73.35031124506366 C768.3338075955792 87.35891772478011, 790.9296048465621 103.44989882509721, 811.2631603200523 120.97601654821722 C831.5967157935424 138.5021342713372, 850.4675708158667 158.0978848400785, 866.2033783148679 178.5070175837837 C881.9391858138691 198.91615032748888, 895.1353829249508 221.1561860828936, 905.6780053140596 243.43081301044828 C916.2206277031685 265.70543993800294, 924.167853195274 288.7009647145295, 929.4591126495211 312.1547791491116 C934.7503721037682 335.60859358369373, 937.9133730908309 360.1588560573456, 937.4255620395425 384.1536996179408 C936.937750988254 408.148543178536, 932.4769406799534 432.4594149706707, 926.5322463417906 456.123840512683 C920.5875520036278 479.78826605469527, 913.0081710812726 503.85858175382134, 901.7573960105658 526.1402528700145 C890.506620939859 548.4219239862076, 875.3003344411619 569.7630839404155, 859.02759591755 589.8138672098416 C842.7548573939381 609.8646504792678, 824.7006072827071 629.218989768808, 804.1209648688944 646.4449524865715 C783.5413224550816 663.6709152043351, 759.9991912583209 679.3943869117999, 735.5497414346735 693.1696435164231 C711.100291611026 706.9449001210463, 684.6323857526318 719.386372922282, 657.4242659270096 729.0964921143111 C630.2161461013875 738.8066113063402, 601.2020696720285 746.0162040866243, 572.301022480941 751.4303586685974 C543.3999752898535 756.8445132505705, 513.6479943436153 760.610211795641, 484.01798278048466 761.5814196061497 C454.387971217354 762.5526274166583, 423.74312484115353 761.0979445958342, 394.52095310215714 757.2576055316495 C365.29878136316074 753.4172664674647, 336.2493063998184 746.7595777506745, 308.68495234650646 738.5393852210411 C281.1205982931945 730.3191926914078, 254.4040957044628 720.2885959402149, 229.1348287822856 707.9364503538496 C203.86556186010841 695.5843047674844, 179.40967541106767 680.5030758121814, 157.06935081344324 664.4265117028492 C134.7290262158188 648.3499475935171, 113.26136144095942 630.7062164224093, 95.09288119653911 611.4770656978568 C76.9244009521188 592.2479149733043, 60.919652440824386 570.6973967786687, 48.05846934692141 549.0516073555344 C35.19728625301844 527.4058179324002, 25.82940088053841 504.7689578585883, 17.925782633121287 481.60232915905107 C10.022164385704162 458.43570045951384, 3.1225189695970337 434.02442375161826, 0.6367598624186712 410.0518351583111 C-1.8489992447596912 386.079246565004, -0.49331198444200686 361.35430756626846, 3.011227990051111 337.7667975992082 C6.51576796454423 314.1792876321479, 12.841839172346047 291.40597683007667, 21.66399970937738 268.5267753559495 C30.48616024640871 245.64757388182235, 42.07207545509041 221.88426836635608, 55.944191212239105 200.49158875444527 C69.8163069693878 179.09890914253447, 86.17990380862223 158.85296959214642, 104.89669425226953 140.17069768448468 C123.61348469591682 121.48842577682295, 145.49550426996333 103.707251786686, 168.24493387412286 88.39795730847487 C190.9943634782824 73.08866283026374, 213.75755555184278 60.31205718213925, 241.3932718772267 48.314930815217906 C269.02898820261066 36.31780444829656, 315.696151466727 21.119419952896124, 334.05923182642647 16.41519910694683 C352.42231218612596 11.710978260997535, 349.37263627915104 14.192967364132073, 351.57175403542357 20.089605739522142 M305.5160378411483 24.995121973652772 C328.9355809944119 11.225313963137959, 360.9562537912134 9.116204119984264, 390.38965376096013 4.756344469192868 C419.8230537307069 0.3964848184014711, 452.3094913920843 -1.9283309084599218, 482.1164376596286 -1.1640359310956114 C511.92338392717295 -0.3997409537313009, 540.5734763795574 3.950921825917618, 569.2313313662262 9.342114333378731 C597.889186352895 14.733306840839845, 626.9443458334478 21.825929328926556, 654.0635675796411 31.18311911367107 C681.1827893258345 40.54030889841558, 707.5533208153344 52.011074784764055, 731.9466618433864 65.4852530418458 C756.3400028714385 78.95943129892753, 779.6741775746675 94.99288546451487, 800.4236137479534 112.02818865616149 C821.1730499212392 129.0634918478081, 839.9231823421294 147.87684238087022, 856.4432788831018 167.6970721917255 C872.9633754240742 187.5173020025808, 887.9476420630215 208.8498019942219, 899.5441929937876 230.94956752129332 C911.1407439245538 253.04933304836473, 919.5996359292767 276.65599456654303, 926.0225844676986 300.295665354154 C932.4455330061205 323.93533614176494, 937.5920295482214 348.58407180436103, 938.0818842243191 372.787592246959 C938.5717389004168 396.9911126895569, 934.1345155817456 421.9622760568464, 928.9617125242846 445.5167880097416 C923.7889094668236 469.07129996263683, 917.548148438145 491.6585090473368, 907.045065879553 514.1146639643302 C896.5419833209611 536.5708188813237, 881.3576198752532 559.5819005801183, 865.9432171727333 580.2537175117022 C850.5288144702133 600.9255344432862, 834.3613289402065 620.1824233121002, 814.5586496644335 638.1455655538341 C794.7559703886604 656.108707795568, 771.1801043020224 673.9451704806172, 747.1271415180954 688.0325709621056 C723.0741787341684 702.1199714435941, 696.7862105720104 712.3761068684497, 670.2408729608715 722.6699684427647 C643.6955353497325 732.9638300170797, 616.5149846243914 743.4764122577167, 587.8551158512618 749.7957404079954 C559.1952470781321 756.1150685582741, 528.0620773381952 759.2029499798875, 498.281660322093 760.585937344437 C468.5012433059908 761.9689247089864, 438.469797774651 760.9128959316969, 409.17261375464847 758.0936645952922 C379.87542973464593 755.2744332588876, 350.6064516817742 751.2911373784125, 322.4985562020779 743.6705493260093 C294.3906607223816 736.0499612736062, 266.1428200711244 724.2596752093534, 240.52524087647075 712.3701362808733 C214.90766168181713 700.4805973523933, 191.53002724230558 687.3689154224578, 168.79308103415616 672.3333157551291 C146.05613482600674 657.2977160878004, 122.982997283603 640.6713918655169, 104.1035636275742 622.1565382769008 C85.22412997154541 603.6416846882848, 69.47349557654458 582.5790988719275, 55.51647909798339 561.2441942234333 C41.5594626194222 539.9092895749391, 29.236404515838217 517.2062063306636, 20.361464756207056 494.14711038593555 C11.486524996575895 471.08801444120746, 5.2924031091975134 446.69945940332695, 2.2668405401964264 422.8896185550649 C-0.7587220288046601 399.0797777068028, -0.010374279386856866 375.05901135274695, 2.2080893422005374 351.28806529636313 C4.426552963787932 327.5171192399793, 7.566187503990042 303.4527846075109, 15.577622269720791 280.26394221676185 C23.58905703545154 257.0750998260128, 36.73470796143977 234.02768969369237, 50.27669793658504 212.15501095186875 C63.81868791173031 190.28233221004513, 79.28916694992976 168.2211455214497, 96.82956212059241 149.0278697658201 C114.36995729125506 129.8345940101905, 133.73361823504416 113.07633359445337, 155.51906896056096 96.99535641809109 C177.30451968607775 80.91437924172881, 202.52421695786086 64.88800617526748, 227.54226647369322 52.54200670764641 C252.56031598952558 40.196007240025345, 292.16178484739595 26.59992530394848, 305.62736605555517 22.9193596123647 C319.0929472637144 19.23879392078092, 305.7086215849049 24.53137929677847, 308.3357537226485 30.458612558143727" stroke="#000000" stroke-width="4" fill="none"></path></g><g transform="translate(2156.156745896488 1315.4049072265625) rotate(0 468.52508544921875 380.6409454345703)"><path d="M249.63824312149524 44.52137467482771 C271.12395098550485 28.348962752602034, 304.6766894299236 24.386570880713162, 333.15077971357596 17.193892727893342 C361.6248699972283 10.001214575073522, 390.9943296152517 3.9844645511214103, 420.48278482340936 1.3653057579088 C449.97124003156705 -1.2538530353038104, 480.8259418255598 -0.7125451429717296, 510.0815109625219 1.4789399686176807 C539.337080099484 3.670425080207091, 567.6701715226775 7.940144266172126, 596.0161996451818 14.514216427445263 C624.3622277676861 21.0882885887184, 653.4343753870296 30.07803783935333, 680.157679697548 40.9233729362565 C706.8809840080664 51.76870803315967, 732.9469550550912 64.94306342747477, 756.356025508292 79.58622700886428 C779.7650959614928 94.2293905902538, 801.1315986786968 110.85015446489733, 820.6121024167528 128.78235442459362 C840.0926061548088 146.71455438428993, 858.1727146407341 166.50384153279518, 873.2390479366277 187.17942676704206 C888.3053812325213 207.85501200128894, 901.3349942507182 229.99652795860777, 911.0101021921146 252.8358658300749 C920.685210133511 275.67520370154205, 927.1004945516954 300.1529138908008, 931.2896955850061 324.2154539958448 C935.4788966183169 348.27799410088886, 937.2872053681637 373.2179022598382, 936.1453083919793 397.2111064603392 C935.0034114157949 421.2043106608402, 931.1470689837535 444.8849522995089, 924.4383137278996 468.17467919885064 C917.7295584720458 491.4644060981924, 908.1088320460154 514.9949218493075, 895.8927768568565 536.9494678563897 C883.6767216676975 558.9040138634718, 868.1652338083987 580.2353011627678, 851.1419825929459 599.9019552413438 C834.118731377493 619.5686093199198, 814.9048439676609 638.1697267602804, 793.7532695641394 654.949392327846 C772.6016951606179 671.7290578954116, 749.1896611520825 687.5944411686932, 724.2325361718165 700.5799486467376 C699.2754111915505 713.5654561247821, 671.4803406534606 723.8852625082775, 644.0105196825433 732.8624371961129 C616.540698711626 741.8396118839482, 588.4782764909393 749.6656384336634, 559.4136103463127 754.4429967737501 C530.3489442016861 759.2203551138368, 499.0876933510843 761.4601361152178, 469.622522814784 761.5265872366335 C440.15735227848376 761.5930383580493, 411.7013867292549 759.3315810113977, 382.6225871285112 754.8417035022444 C353.5437875277675 750.3518259930911, 322.81410054184556 743.5006496750179, 295.14972521032166 734.5873221817134 C267.48534987879776 725.6739946884088, 241.3010712040919 714.2806909546127, 216.6363351393679 701.361738542417 C191.9715990746439 688.4427861302213, 168.69932152850748 673.6612059915296, 147.16130882197774 657.0736077085389 C125.623296115448 640.4860094255482, 104.82918815819495 621.5407366022628, 87.40825890018942 601.8361488444724 C69.9873296421839 582.131561086682, 55.09331621779788 560.6105369960655, 42.635733273944595 538.846081161797 C30.178150330091313 517.0816253275284, 19.789963502693542 494.5576459832288, 12.66276123706973 471.24941383886085 C5.535558971445918 447.9411816944929, 1.1102713486890252 422.92314835804285, -0.12748031979828056 398.9966882955892 C-1.3652319882855863 375.07022823313554, 0.8218657850932614 351.2851633651772, 5.236251226145896 327.69065346413896 C9.65063666719853 304.0961435631007, 16.973773388581527 280.10307667568657, 26.35883232651753 257.4296288893599 C35.74389126445353 234.75618110303324, 46.95686390880727 212.5597288090515, 61.54660485376189 191.64996674617902 C76.1363457987165 170.74020468330653, 94.25322754885484 150.4050136533033, 113.89727799624524 131.97105651212493 C133.54132844363562 113.53709937094656, 154.3094030505858 96.57414335239743, 179.41090753810425 81.04622389910878 C204.51241202562272 65.51830444582014, 246.97235050776777 45.62530876826893, 264.506304921356 38.80353979239305 C282.0402593349442 31.981770816517173, 281.24652059233097 34.69098497011296, 284.6146340196335 40.11561004385351 M319.9345075248238 18.796038740606605 C343.6931406543978 5.550596426753392, 375.22394262854965 7.229505628534875, 404.1920565752597 4.288424098554174 C433.16017052196975 1.3473425685734717, 463.91667175784914 -0.11733097525335734, 493.74319120508403 1.1495495607223916 C523.5697106523189 2.4164300966981402, 554.342646772826 6.146133522067108, 583.151173258669 11.889707314408668 C611.959699744512 17.63328110675023, 640.0548489522648 25.740054816898464, 666.5943501201423 35.61099231477175 C693.1338512880197 45.481929812645035, 718.2369335319484 57.045483942614965, 742.3881802659339 71.11533230164838 C766.5394269999194 85.1851806606818, 791.2223028076586 102.22429937210885, 811.5018305240559 120.03008246897224 C831.7813582404532 137.83586556583563, 848.5050283639418 157.35603361193566, 864.0653465643175 177.9500308828287 C879.625664764693 198.54402815372177, 893.7388295897656 221.09003339094005, 904.8637397263092 243.5940660943306 C915.9886498628528 266.09809879772115, 925.2207484272881 289.310836927488, 930.8148073835791 312.9742271031719 C936.4088663398702 336.6376172788558, 938.8567148378962 361.8141728334568, 938.4280934640553 385.57440714843415 C937.9994720902145 409.3346414634115, 934.6068536665591 431.99060033399934, 928.2430791405336 455.535632993036 C921.8793046145081 479.0806656520727, 911.409117663846 504.5135335960547, 900.2454463079022 526.8446031026542 C889.0817749519583 549.1756726092538, 877.0806167850575 569.5282340986928, 861.2610510048709 589.5220500326332 C845.4414852246842 609.5158659665735, 826.196822069974 629.3383199010112, 805.3280516267822 646.8074987062962 C784.4592811835904 664.2766775115812, 760.4496241298946 680.5864306394805, 736.0484283457201 694.3371228643427 C711.6472325615457 708.087815089205, 685.9859924801586 719.9258988560504, 658.9208769217358 729.3116520554698 C631.855761363313 738.6974052548893, 602.7296848922379 745.1806041474289, 573.6577349951831 750.6516420608593 C544.5857850981283 756.1226799742898, 514.1890701286131 760.9906148260053, 484.48917753940754 762.1378795360527 C454.789284950202 763.2851442461, 424.75463061062123 761.4417367779308, 395.4583794599498 757.5352303211434 C366.1621283092784 753.6287238643561, 336.49008552108796 747.1776723328279, 308.71167063537916 738.6988407953286 C280.93325574967037 730.2200092578292, 253.92130600959362 718.9941220925848, 228.78789014569688 706.6622410961476 C203.65447428180013 694.3303600997103, 179.82727417223333 680.414816970581, 157.9111754519987 664.7075548167054 C135.99507673176407 649.0002926628298, 115.53726342077015 631.2501224585367, 97.29129782428907 612.4186681728937 C79.045332227808 593.5872138872508, 61.738192421620845 573.1394886402749, 48.435381873112306 551.7188291028473 C35.13257132460377 530.2981695654197, 25.295736141857997 507.07960482732597, 17.474434533237854 483.89471094832794 C9.653132924617712 460.7098170693299, 4.092279045295593 436.9406356898818, 1.507572221391456 412.60946582885896 C-1.0771346025126811 388.27829596783613, -1.1158148001232178 361.9733476282506, 1.966193589813031 337.9076917821908 C5.04820197974928 313.84203593613097, 11.180160101796256 290.81026422564116, 19.999622561008948 268.21553075249994 C28.819085020221642 245.62079727935873, 40.64171475524304 223.46420598165844, 54.88296834508918 202.3392909433435 C69.12422193493533 181.2143759050286, 87.00594166283177 160.32766430750038, 105.44714410008584 141.46604052261046 C123.8883465373399 122.60441673772053, 143.0300039010396 104.67642953404659, 165.5301829686136 89.16954823400397 C188.03036203618757 73.66266693396135, 215.05480091950474 60.01848476097956, 240.44821850552975 48.4247527223547 C265.8416360915548 36.83102068372983, 304.4973052868888 23.370945708513318, 317.8906884847637 19.607156002254783 C331.2840716826386 15.843366295996248, 318.09413040637526 19.569013837618638, 320.80851769277933 25.842014484803485" stroke="#000000" stroke-width="4" fill="none"></path></g><g transform="translate(953.9035720683628 359.0448025790131) rotate(0 148.6106414794922 67.55029158158737)"><text x="0" y="94.10058316317478" font-family="Virgil, Segoe UI Emoji" font-size="108.08046653053985px" fill="#000000" text-anchor="start" style="white-space: pre;" direction="ltr">Actor</text></g><g transform="translate(2332.990730271488 312.33502474698184) rotate(0 148.6106414794922 67.55029158158737)"><text x="0" y="94.10058316317478" font-family="Virgil, Segoe UI Emoji" font-size="108.08046653053985px" fill="#000000" text-anchor="start" style="white-space: pre;" direction="ltr">Actor</text></g><g transform="translate(780.1148757793003 1515.0598782626068) rotate(0 148.6106414794922 67.55029158158737)"><text x="0" y="94.10058316317478" font-family="Virgil, Segoe UI Emoji" font-size="108.08046653053985px" fill="#000000" text-anchor="start" style="white-space: pre;" direction="ltr">Actor</text></g><g transform="translate(2453.041511521488 1618.7183255282318) rotate(0 148.6106414794922 67.55029158158737)"><text x="0" y="94.10058316317478" font-family="Virgil, Segoe UI Emoji" font-size="108.08046653053985px" fill="#000000" text-anchor="start" style="white-space: pre;" direction="ltr">Actor</text></g><g><g transform="translate(9.702369675785121 427.2461242675781) rotate(0 322.3578664563597 -1.6304014585912228)"><path d="M0.29763032421469693 0.513380167633295 C107.76723479256034 -0.2767004512250425, 536.6988391540945 -3.0720533631742, 644.4181025885046 -3.7741830848157405" stroke="#000000" stroke-width="4.5" fill="none" stroke-dasharray="3 6"></path></g><g transform="translate(9.702369675785121 427.2461242675781) rotate(0 322.3578664563597 -1.6304014585912228)"><path d="M617.1505803889333 4.9604618506231795 C622.0800500604931 5.763602387968582, 629.7053148473493 -0.4503537541462217, 645.7376266345382 -5.028956995904446" stroke="#000000" stroke-width="4.5" fill="none" stroke-dasharray="3 4"></path></g><g transform="translate(9.702369675785121 427.2461242675781) rotate(0 322.3578664563597 -1.6304014585912228)"><path d="M617.0165375651214 -15.560308965971977 C622.1470009187045 -9.284481725932457, 629.8080157731342 -10.025418705277229, 645.7376266345382 -5.028956995904446" stroke="#000000" stroke-width="4.5" fill="none" stroke-dasharray="3 4"></path></g></g><g transform="translate(213.9221877910195 234.53392078030504) rotate(0 116.409423828125 56.32714056199592)"><text x="0" y="78.65428112399188" font-family="Virgil, Segoe UI Emoji" font-size="90.12342489919354px" fill="#000000" text-anchor="start" style="white-space: pre;" direction="ltr">event</text></g><g><g transform="translate(1578.2772598125052 572.7369384765618) rotate(0 255.03301341757196 -6.423797931522131)"><path d="M-0.5557856418192386 -1.1287162564694881 C84.62946518883109 -3.024029114097357, 425.387781586498 -9.685834052413702, 510.6218124769628 -11.718879606574774" stroke="#000000" stroke-width="4.5" fill="none" stroke-dasharray="3 6"></path></g><g transform="translate(1578.2772598125052 572.7369384765618) rotate(0 255.03301341757196 -6.423797931522131)"><path d="M480.77607643688026 0.039154935820201686 C491.4625365588263 -2.2690431459320797, 496.03054705000136 -8.212066563904862, 510.1494096621871 -11.075151644647121" stroke="#000000" stroke-width="4.5" fill="none" stroke-dasharray="3 4"></path></g><g transform="translate(1578.2772598125052 572.7369384765618) rotate(0 255.03301341757196 -6.423797931522131)"><path d="M480.3365380964959 -20.4773459459864 C491.07759586546445 -17.465789416577547, 495.7595313061049 -18.09109396587765, 510.1494096621871 -11.075151644647121" stroke="#000000" stroke-width="4.5" fill="none" stroke-dasharray="3 4"></path></g></g><g><g transform="translate(2082.2506484843802 276.2971191406243) rotate(0 -240.39141627773643 11.56926534399389)"><path d="M-1.0584710620343685 0.14336453899741164 C-81.14594115639727 4.149242200702428, -399.7179819447299 19.067559208720922, -479.7243614934385 22.995166148990393" stroke="#000000" stroke-width="4.5" fill="none" stroke-dasharray="3 6"></path></g><g transform="translate(2082.2506484843802 276.2971191406243) rotate(0 -240.39141627773643 11.56926534399389)"><path d="M-451.8172362018754 13.315081550755824 C-462.08324347176756 15.036099510215692, -471.0395695056794 20.90875619940971, -477.8987643823028 22.39331778138876" stroke="#000000" stroke-width="4.5" fill="none" stroke-dasharray="3 4"></path></g><g transform="translate(2082.2506484843802 276.2971191406243) rotate(0 -240.39141627773643 11.56926534399389)"><path d="M-450.8364758274005 33.81284024466426 C-461.28446846168487 28.008578298879215, -470.6004441529335 26.364605970121417, -477.8987643823028 22.39331778138876" stroke="#000000" stroke-width="4.5" fill="none" stroke-dasharray="3 4"></path></g></g><g><g transform="translate(1033.0786921041713 816.9926147460931) rotate(0 -28.592268568028885 197.90219485933582)"><path d="M-0.06064857020974168 0.4328674055635928 C-9.722764242109225 66.34668320326342, -47.39468381313763 329.5147263213164, -57.123888565847665 395.371522313108" stroke="#000000" stroke-width="4.5" fill="none" stroke-dasharray="3 6"></path></g><g transform="translate(1033.0786921041713 816.9926147460931) rotate(0 -28.592268568028885 197.90219485933582)"><path d="M-62.50704302172534 366.9034140888684 C-61.231246912702 375.6091675879206, -58.63119697140823 387.4732775960371, -58.73155935356954 395.4949281906088" stroke="#000000" stroke-width="4.5" fill="none" stroke-dasharray="3 4"></path></g><g transform="translate(1033.0786921041713 816.9926147460931) rotate(0 -28.592268568028885 197.90219485933582)"><path d="M-42.19866714818262 369.85127293296995 C-48.449136251631444 377.4538916042465, -53.37808744222476 388.22513073425415, -58.73155935356954 395.4949281906088" stroke="#000000" stroke-width="4.5" fill="none" stroke-dasharray="3 4"></path></g></g><g><g transform="translate(1303.1124648906302 1354.5359497070306) rotate(0 -2.1069263118010895 -277.0270737630626)"><path d="M-0.9213434793055058 0.22891044393181792 C-1.2852479051385672 -92.19732121320236, -3.051481457965747 -461.63991881170216, -3.2925091442968553 -554.283057970057" stroke="#000000" stroke-width="4.5" fill="none" stroke-dasharray="3 6"></path></g><g transform="translate(1303.1124648906302 1354.5359497070306) rotate(0 -2.1069263118010895 -277.0270737630626)"><path d="M7.457778148680631 -525.905152009606 C5.426511338221166 -530.2866169226224, 1.0294213248494106 -537.7877478184039, -3.4655148481335347 -553.4413878704112" stroke="#000000" stroke-width="4.5" fill="none" stroke-dasharray="3 4"></path></g><g transform="translate(1303.1124648906302 1354.5359497070306) rotate(0 -2.1069263118010895 -277.0270737630626)"><path d="M-13.063279183314531 -525.826358844894 C-10.835037873287392 -530.0666215103852, -10.97243963713659 -537.5841080116521, -3.4655148481335347 -553.4413878704112" stroke="#000000" stroke-width="4.5" fill="none" stroke-dasharray="3 4"></path></g></g><g><g transform="translate(1477.6197077291704 718.113220214843) rotate(0 446.96322837099433 330.13590118264165)"><path d="M0.055787267535925 0.10719122663140301 C149.13223810022075 110.17840406141349, 744.913578230391 550.1001007269655, 893.8706694744527 660.1646111386518" stroke="#000000" stroke-width="4.5" fill="none" stroke-dasharray="3 6"></path></g><g transform="translate(1477.6197077291704 718.113220214843) rotate(0 446.96322837099433 330.13590118264165)"><path d="M865.2772897742651 651.3821417243222 C870.537854071748 653.3805040235952, 878.3089531339472 655.8060034037217, 893.8695313796401 661.2276364381115" stroke="#000000" stroke-width="4.5" fill="none" stroke-dasharray="3 4"></path></g><g transform="translate(1477.6197077291704 718.113220214843) rotate(0 446.96322837099433 330.13590118264165)"><path d="M877.4693426065144 634.875359781088 C879.633606331256 641.0225434967031, 884.3445362227197 647.5911962822283, 893.8695313796401 661.2276364381115" stroke="#000000" stroke-width="4.5" fill="none" stroke-dasharray="3 4"></path></g></g><g transform="translate(2925.2069167949253 2092.686798095703) rotate(0 84 10)"><text x="168" y="14" font-family="Virgil, Segoe UI Emoji" font-size="16px" fill="#adb5bd" text-anchor="end" style="white-space: pre;" direction="ltr">Made with Excalidraw</text></g></svg>